<svg xmlns="http://www.w3.org/2000/svg" viewBox="0 0 32 32" width="32" height="32">
  <defs>
    <linearGradient id="globeGradient" x1="0%" y1="0%" x2="100%" y2="100%">
      <stop offset="0%" style="stop-color:#8b5cf6;stop-opacity:1" />
      <stop offset="100%" style="stop-color:#06b6d4;stop-opacity:1" />
    </linearGradient>
  </defs>
  
  <!-- Background circle -->
  <circle cx="16" cy="16" r="15" fill="url(#globeGradient)" stroke="#1e293b" stroke-width="1"/>
  
  <!-- Globe grid lines -->
  <path d="M 16 1 A 15 15 0 0 1 16 31" fill="none" stroke="#ffffff" stroke-width="0.5" opacity="0.3"/>
  <path d="M 16 1 A 15 15 0 0 0 16 31" fill="none" stroke="#ffffff" stroke-width="0.5" opacity="0.3"/>
  <path d="M 1 16 A 15 15 0 0 1 31 16" fill="none" stroke="#ffffff" stroke-width="0.5" opacity="0.3"/>
  <path d="M 1 16 A 15 15 0 0 0 31 16" fill="none" stroke="#ffffff" stroke-width="0.5" opacity="0.3"/>
  
  <!-- Horizontal lines -->
  <path d="M 1 8 A 15 15 0 0 1 31 8" fill="none" stroke="#ffffff" stroke-width="0.3" opacity="0.2"/>
  <path d="M 1 24 A 15 15 0 0 1 31 24" fill="none" stroke="#ffffff" stroke-width="0.3" opacity="0.2"/>
  
  <!-- Vertical lines -->
  <path d="M 8 1 A 15 15 0 0 1 8 31" fill="none" stroke="#ffffff" stroke-width="0.3" opacity="0.2"/>
  <path d="M 24 1 A 15 15 0 0 1 24 31" fill="none" stroke="#ffffff" stroke-width="0.3" opacity="0.2"/>
  
  <!-- Center dot -->
  <circle cx="16" cy="16" r="1" fill="#ffffff" opacity="0.8"/>
  
  <!-- Small accent dots -->
  <circle cx="12" cy="10" r="0.5" fill="#ffffff" opacity="0.6"/>
  <circle cx="20" cy="12" r="0.5" fill="#ffffff" opacity="0.6"/>
  <circle cx="14" cy="22" r="0.5" fill="#ffffff" opacity="0.6"/>
  <circle cx="22" cy="20" r="0.5" fill="#ffffff" opacity="0.6"/>
</svg> 